Anonymous.2011.BRRip.XviD.Ac3.Feel-Free


Genre:Drama | Thriller
Language:English
IMDb:http://www.imdb.com/title/tt1521197/
Source:1080p.BluRay.x264-SPARKS Thanks!
Encoder:Tony


Format : AVI
Format/Info : Audio Video Interleave
File size : 1.11 GiB
Duration : 2h 9mn
Overall bit rate : 1 227 Kbps


Video
ID : 0
Format : MPEG-4 Visual
Format profile : Advanced Simple@L5
Format settings, BVOP : 1
Format settings, QPel : No
Format settings, GMC : No warppoints
Format settings, Matrix : Default (H.263)
Codec ID : XVID
Codec ID/Hint : XviD
Duration : 2h 9mn
Bit rate : 1 026 Kbps
Width : 640 pixels
Height : 272 pixels
Display aspect ratio : 2.35:1
Frame rate : 23.976 fps
Color space : YUV
Chroma subsampling : 4:2:0
Bit depth : 8 bits
Scan type : Progressive
Compression mode : Lossy
Bits/(Pixel*Frame) : 0.246
Stream size : 954 MiB (84%)
Writing library : XviD 1.2.1 (UTC 2008-12-04)


Audio
ID : 1
Format : AC-3
Format/Info : Audio Coding 3
Mode extension : CM (complete main)
Codec ID : 2000
Duration : 2h 9mn
Bit rate mode : Constant
Bit rate : 192 Kbps
Channel(s) : 6 channels
Channel positions : Front: L C R, Side: L R, LFE
Sampling rate : 48.0 KHz
Bit depth : 16 bits
Compression mode : Lossy
Stream size : 178 MiB (16%)
Alignment : Aligned on interleaves
Interleave, duration : 42 ms (1.00 video frame)
Interleave, preload duration : 512 ms


Plot:

A political thriller advancing the theory that it was in fact Edward De Vere, 
Earl of Oxford who penned Shakespeare's plays; set against the backdrop of the succession of Queen Elizabeth I, and the Essex Rebellion against her.


Poster:

 
http://i.imgur.com/wxlwV.jpg


Screens:

 
http://i.imgur.com/p5g3S.png

 
http://i.imgur.com/d40Ry.png

 
http://i.imgur.com/04aMW.png


ENJOY!